<svg xmlns="http://www.w3.org/2000/svg" viewBox="0 0 512 512" role="img" aria-labelledby="title desc">
  <title id="title">Somesh Developer Icon</title>
  <desc id="desc">Rounded square gradient background with code brackets and an S monogram for developer portfolio branding.</desc>
  <defs>
    <linearGradient id="bg" x1="0" y1="0" x2="1" y2="1">
      <stop offset="0%" stop-color="#101725"/>
      <stop offset="55%" stop-color="#1f355f"/>
      <stop offset="100%" stop-color="#2d78b7"/>
    </linearGradient>
    <linearGradient id="glow" x1="0" y1="0" x2="1" y2="1">
      <stop offset="0%" stop-color="#ffd36b"/>
      <stop offset="100%" stop-color="#ff9b2f"/>
    </linearGradient>
    <filter id="soft" x="-20%" y="-20%" width="140%" height="140%">
      <feGaussianBlur stdDeviation="6"/>
    </filter>
  </defs>

  <rect x="20" y="20" width="472" height="472" rx="108" fill="url(#bg)"/>
  <rect x="20" y="20" width="472" height="472" rx="108" fill="none" stroke="#77b6ff" stroke-opacity="0.35" stroke-width="8"/>

  <circle cx="256" cy="256" r="152" fill="#0e1629" fill-opacity="0.72"/>
  <circle cx="256" cy="256" r="156" fill="none" stroke="#7fd1ff" stroke-opacity="0.26" stroke-width="6"/>

  <g fill="none" stroke="url(#glow)" stroke-width="22" stroke-linecap="round" stroke-linejoin="round" filter="url(#soft)">
    <path d="M176 186 L126 256 L176 326"/>
    <path d="M336 186 L386 256 L336 326"/>
  </g>

  <g fill="none" stroke="url(#glow)" stroke-width="18" stroke-linecap="round" stroke-linejoin="round">
    <path d="M176 186 L126 256 L176 326"/>
    <path d="M336 186 L386 256 L336 326"/>
  </g>

  <path d="M286 160c-34 0-62 23-62 52 0 28 21 41 53 49 27 7 37 13 37 24 0 13-12 22-31 22-20 0-36-9-48-24l-28 23c18 24 44 37 75 37 41 0 70-24 70-60 0-29-19-46-57-55-24-6-33-11-33-21 0-10 10-17 25-17 16 0 28 6 39 18l25-24c-16-18-39-29-65-29z" fill="#f7fbff"/>
</svg>
